<svg width="589" height="445" viewBox="0 0 589 445" fill="none" xmlns="http://www.w3.org/2000/svg">
<path d="M155.73 220.211H293.11L341.361 2L418.101 321.523L450.238 220.211H582L579.798 235.3L577.867 246.188H469.17L410.341 422.835L341.361 78.5589L322.426 246.188H155.73V220.211Z" fill="#F0D800"/>
<path d="M6 293.226V62.6878H188.189C198.862 62.6878 207.934 66.4234 215.406 73.8945C222.877 81.3657 226.612 90.4378 226.612 101.111V150.1C226.612 153.089 226.185 156.077 225.332 159.066C224.691 161.841 223.731 164.509 222.45 167.07C227.146 174.115 230.668 180.198 233.016 185.321C235.364 190.444 236.538 195.674 236.538 201.011V254.803C236.538 265.476 232.803 274.548 225.332 282.019C217.86 289.491 208.788 293.226 198.115 293.226H6ZM44.423 267.291H198.115C201.531 267.291 204.412 266.117 206.76 263.768C209.322 261.207 210.603 258.218 210.603 254.803V201.011C210.603 197.595 209.322 194.714 206.76 192.366C204.412 189.804 201.531 188.523 198.115 188.523H44.423C41.0077 188.523 38.0192 189.804 35.4577 192.366C33.1096 194.714 31.9356 197.595 31.9356 201.011V254.803C31.9356 258.218 33.1096 261.207 35.4577 263.768C38.0192 266.117 41.0077 267.291 44.423 267.291ZM44.423 162.588H188.189C191.605 162.588 194.486 161.414 196.834 159.066C199.183 156.504 200.357 153.516 200.357 150.1V101.111C200.357 97.6955 199.183 94.8138 196.834 92.4657C194.486 89.9041 191.605 88.6234 188.189 88.6234H44.423C41.0077 88.6234 38.0192 89.9041 35.4577 92.4657C33.1096 94.8138 31.9356 97.6955 31.9356 101.111V150.1C31.9356 153.516 33.1096 156.504 35.4577 159.066C38.0192 161.414 41.0077 162.588 44.423 162.588Z" fill="#F0D800"/>
<path d="M155.73 220.211H293.11L341.361 2L418.101 321.523L450.238 220.211H582L579.798 235.3L577.867 246.188H469.17L410.341 422.835L341.361 78.5589L322.426 246.188H155.73V220.211Z" stroke="#F0D800" stroke-width="11"/>
<path d="M6 293.226V62.6878H188.189C198.862 62.6878 207.934 66.4234 215.406 73.8945C222.877 81.3657 226.612 90.4378 226.612 101.111V150.1C226.612 153.089 226.185 156.077 225.332 159.066C224.691 161.841 223.731 164.509 222.45 167.07C227.146 174.115 230.668 180.198 233.016 185.321C235.364 190.444 236.538 195.674 236.538 201.011V254.803C236.538 265.476 232.803 274.548 225.332 282.019C217.86 289.491 208.788 293.226 198.115 293.226H6ZM44.423 267.291H198.115C201.531 267.291 204.412 266.117 206.76 263.768C209.322 261.207 210.603 258.218 210.603 254.803V201.011C210.603 197.595 209.322 194.714 206.76 192.366C204.412 189.804 201.531 188.523 198.115 188.523H44.423C41.0077 188.523 38.0192 189.804 35.4577 192.366C33.1096 194.714 31.9356 197.595 31.9356 201.011V254.803C31.9356 258.218 33.1096 261.207 35.4577 263.768C38.0192 266.117 41.0077 267.291 44.423 267.291ZM44.423 162.588H188.189C191.605 162.588 194.486 161.414 196.834 159.066C199.183 156.504 200.357 153.516 200.357 150.1V101.111C200.357 97.6955 199.183 94.8138 196.834 92.4657C194.486 89.9041 191.605 88.6234 188.189 88.6234H44.423C41.0077 88.6234 38.0192 89.9041 35.4577 92.4657C33.1096 94.8138 31.9356 97.6955 31.9356 101.111V150.1C31.9356 153.516 33.1096 156.504 35.4577 159.066C38.0192 161.414 41.0077 162.588 44.423 162.588Z" stroke="#F0D800" stroke-width="11"/>
</svg>
